<svg xmlns="http://www.w3.org/2000/svg" viewBox="0 0 512 512">
  <rect width="512" height="512" rx="96" fill="#2563EB"/>

  <path
    d="M256 110
       C177 110 120 167 120 246
       C120 325 177 382 256 382
       C278 382 299 378 317 370
       L360 413
       C367 420 378 420 385 413
       C392 406 392 395 385 388
       L350 353
       C379 327 392 289 392 246
       C392 167 335 110 256 110Z

       M256 154
       C310 154 348 192 348 246
       C348 300 310 338 256 338
       C202 338 164 300 164 246
       C164 192 202 154 256 154Z"
    fill="white"
  />
</svg>